# xmcd
#
# Track frame offsets: 
#        150
#        26878
#        43043
#        61861
#        79865
#        99920
#        115198
#        132808
#        145268
#        172296
#
# Disc length: 2629 seconds
#
# Revision: 0
# Processed by: cddbd v1.5.2PL0 Copyright (c) Steve Scherf et al.
# Submitted via: ExactAudioCopyFreeDBPlugin 1.0
#
DISCID=870a430a
DTITLE=Slim Cessna's Auto Club - The Commandments According To Scac
DYEAR=2016
DGENRE=Country
TTITLE0=Commandment 1
TTITLE1=Commandment 2
TTITLE2=Commandment 3
TTITLE3=Commandment 4
TTITLE4=Commandment 5
TTITLE5=Commandment 6
TTITLE6=Commandment 7
TTITLE7=Commandment 8
TTITLE8=Commandment 9
TTITLE9=Commandment 10
EXTD=
EXTT0=
EXTT1=
EXTT2=
EXTT3=
EXTT4=
EXTT5=
EXTT6=
EXTT7=
EXTT8=
EXTT9=
PLAYORDER=
